<svg width="95" height="29" viewBox="0 0 95 29" fill="none" xmlns="http://www.w3.org/2000/svg">
<path d="M9.80512 24.0187C8.87719 24.0187 8.06268 23.8125 7.36157 23.4C6.66047 22.9876 6.07278 22.3793 5.59851 21.5751C5.14485 20.7503 4.80461 19.7399 4.57779 18.5439H4.36127V23.5856H0L0 1.93394H5.01082V6.72825C5.01082 7.28501 4.97989 7.883 4.91803 8.52224C4.87678 9.16148 4.80461 9.82135 4.70151 10.5018C4.61903 11.1823 4.51592 11.8731 4.3922 12.5742H4.67058C4.85616 11.2132 5.18609 10.11 5.66037 9.26459C6.13464 8.41914 6.74295 7.80052 7.4853 7.40873C8.22764 7.01694 9.07309 6.82104 10.0216 6.82104C11.2383 6.82104 12.2899 7.13035 13.1766 7.74897C14.0839 8.36759 14.785 9.29552 15.2799 10.5328C15.7748 11.77 16.0222 13.3269 16.0222 15.2033C16.0222 17.2035 15.7439 18.8532 15.1871 20.1523C14.651 21.4514 13.9086 22.4206 12.9601 23.0598C12.0322 23.699 10.9805 24.0187 9.80512 24.0187ZM8.04205 20.0286C8.66067 20.0286 9.1865 19.8327 9.61953 19.4409C10.0526 19.0285 10.3825 18.4923 10.6093 17.8325C10.8362 17.152 10.9496 16.4096 10.9496 15.6054C10.9496 14.8012 10.8465 14.0486 10.6403 13.3475C10.4341 12.6464 10.1144 12.0793 9.6814 11.6463C9.24836 11.2132 8.70192 10.9967 8.04205 10.9967C7.75337 10.9967 7.45437 11.0483 7.14506 11.1514C6.85637 11.2545 6.57799 11.4194 6.30992 11.6463C6.06247 11.8525 5.83565 12.1309 5.62944 12.4814C5.42323 12.8113 5.25827 13.2238 5.13454 13.7187C5.01082 14.1929 4.94896 14.7394 4.94896 15.358V15.5745C4.94896 16.3375 5.03144 16.9973 5.1964 17.5541C5.38199 18.1109 5.61913 18.5748 5.90782 18.946C6.19651 19.3172 6.52644 19.5955 6.89761 19.7811C7.26878 19.9461 7.65026 20.0286 8.04205 20.0286Z" fill="#18181B"/>
<path d="M17.8216 23.5856V7.25407H22.1519V13.7496H22.3993C22.5231 12.0174 22.7602 10.6565 23.1108 9.66669C23.4819 8.65628 23.9356 7.94487 24.4717 7.53245C25.0285 7.09942 25.6471 6.8829 26.3276 6.8829C26.6988 6.8829 27.0802 6.93445 27.472 7.03756C27.8844 7.14066 28.2865 7.30562 28.6783 7.53245L28.4309 13.1C27.9772 12.832 27.5339 12.6361 27.1009 12.5123C26.6678 12.368 26.2554 12.2958 25.8636 12.2958C25.2038 12.2958 24.647 12.4814 24.1933 12.8526C23.7397 13.2238 23.3891 13.7702 23.1417 14.4919C22.9149 15.2136 22.8014 16.09 22.8014 17.1211V23.5856H17.8216Z" fill="#18181B"/>
<path d="M30.206 23.5856V7.25407H35.2169V23.5856H30.206Z" fill="#18181B"/>
<path d="M37.4555 23.5856V7.25407H41.693V13.9042H41.9405C42.0642 12.2958 42.3323 10.9761 42.7447 9.94507C43.1571 8.89342 43.7448 8.10983 44.5077 7.59431C45.2707 7.0788 46.2399 6.82104 47.4153 6.82104C49.1886 6.82104 50.5187 7.40873 51.4054 8.58411C52.3127 9.75948 52.7663 11.5122 52.7663 13.8424V23.5856H47.7555V14.4919C47.7555 13.3784 47.5802 12.5433 47.2297 11.9865C46.8997 11.4298 46.3636 11.1514 45.6213 11.1514C45.0026 11.1514 44.4562 11.3679 43.9819 11.8009C43.5076 12.234 43.1365 12.9351 42.8684 13.9042C42.6003 14.8734 42.4663 16.1725 42.4663 17.8015V23.5856H37.4555Z" fill="#18181B"/>
<path d="M61.2885 28.4727C59.4533 28.4727 57.9995 28.3284 56.9273 28.0397C55.855 27.751 55.092 27.3489 54.6384 26.8334C54.1847 26.3385 53.9579 25.7611 53.9579 25.1013C53.9579 24.1939 54.3187 23.4722 55.0405 22.9361C55.7622 22.3793 56.8138 21.9978 58.1954 21.7916V21.637C57.1438 21.637 56.319 21.4617 55.721 21.1112C55.123 20.74 54.824 20.2348 54.824 19.5955C54.824 18.9975 55.092 18.4614 55.6282 17.9871C56.1849 17.5129 57.0819 17.2757 58.3192 17.2757V17.0592C57.2056 16.7911 56.3189 16.2756 55.6591 15.5126C54.9992 14.7497 54.6693 13.7599 54.6693 12.5433C54.6693 11.471 54.9374 10.5431 55.4735 9.75948C56.0303 8.9759 56.8345 8.36759 57.8861 7.93455C58.9378 7.4809 60.2163 7.25407 61.7216 7.25407H69.8564V11.0895L64.2579 10.3781V10.6256C65.9694 10.8524 67.1242 11.2442 67.7222 11.8009C68.3408 12.3371 68.6501 12.9866 68.6501 13.7496C68.6501 14.5125 68.413 15.193 67.9387 15.791C67.485 16.389 66.7736 16.8633 65.8045 17.2139C64.8353 17.5438 63.6084 17.7087 62.1237 17.7087C61.67 17.7087 61.206 17.6881 60.7318 17.6469C60.2781 17.6056 59.8863 17.5438 59.5564 17.4613C59.2058 17.6056 58.9275 17.7603 58.7213 17.9253C58.5357 18.0696 58.4429 18.2243 58.4429 18.3892C58.4429 18.4923 58.4841 18.5748 58.5666 18.6367C58.6491 18.6779 58.7625 18.7088 58.9068 18.7295C59.0718 18.7501 59.2574 18.7604 59.4636 18.7604H64.4126C64.8456 18.7604 65.3817 18.7913 66.021 18.8532C66.6808 18.8944 67.3304 19.0491 67.9696 19.3172C68.6295 19.5646 69.1759 19.9873 69.609 20.5853C70.042 21.1833 70.2585 22.0288 70.2585 23.1217C70.2585 24.3589 69.9286 25.3693 69.2687 26.1529C68.6295 26.9365 67.65 27.5139 66.3303 27.885C65.0106 28.2768 63.33 28.4727 61.2885 28.4727ZM61.2885 24.0805C62.6701 24.0805 63.6908 24.029 64.3507 23.9259C65.0106 23.8434 65.4436 23.7197 65.6498 23.5547C65.856 23.3897 65.9591 23.2041 65.9591 22.9979C65.9591 22.7093 65.8766 22.4824 65.7117 22.3175C65.5467 22.1525 65.3405 22.0391 65.093 21.9772C64.8456 21.8947 64.5981 21.8535 64.3507 21.8535C64.1239 21.8329 63.9383 21.8226 63.7939 21.8226H59.6183C58.9584 22.0494 58.5047 22.2659 58.2573 22.4721C58.0305 22.6577 57.9171 22.8742 57.9171 23.1217C57.9171 23.4104 58.0511 23.6166 58.3192 23.7403C58.6078 23.8846 58.9996 23.9774 59.4945 24.0187C60.01 24.0599 60.608 24.0805 61.2885 24.0805ZM61.8144 14.9868C62.4742 14.9868 62.9794 14.7806 63.33 14.3682C63.7011 13.9558 63.8867 13.3887 63.8867 12.667C63.8867 11.9453 63.7011 11.3679 63.33 10.9349C62.9588 10.4812 62.4433 10.2544 61.7834 10.2544C61.1442 10.2544 60.6287 10.4812 60.2369 10.9349C59.8657 11.3679 59.6801 11.9453 59.6801 12.667C59.6801 13.1413 59.7626 13.5537 59.9276 13.9042C60.0925 14.2548 60.3297 14.5229 60.639 14.7084C60.9689 14.894 61.3607 14.9868 61.8144 14.9868Z" fill="#18181B"/>
<path d="M71.9919 23.6056V7.27404H77.0027V23.6056H71.9919Z" fill="#EE063E"/>
<path d="M79.2413 23.6056V7.27404H83.4788V13.9242H83.7263C83.85 12.3158 84.1181 10.9961 84.5305 9.96504C84.9429 8.91338 85.5306 8.1298 86.2936 7.61428C87.0565 7.09876 88.0257 6.84101 89.2011 6.84101C90.9745 6.84101 92.3045 7.4287 93.1912 8.60407C94.0985 9.77945 94.5521 11.5322 94.5521 13.8623V23.6056H89.5413V14.5119C89.5413 13.3984 89.366 12.5632 89.0155 12.0065C88.6856 11.4497 88.1494 11.1713 87.4071 11.1713C86.7885 11.1713 86.242 11.3879 85.7677 11.8209C85.2935 12.2539 84.9223 12.955 84.6542 13.9242C84.3862 14.8934 84.2521 16.1925 84.2521 17.8215V23.6056H79.2413Z" fill="#EE063E"/>
<path d="M32.0672 6.52581C32.1776 6.47608 32.2873 6.42347 32.3971 6.37158C32.7629 6.19786 33.1162 5.98914 33.4536 5.74753V5.74177L33.4566 5.74753C33.8105 5.48968 34.1436 5.19367 34.4519 4.86331C34.7024 4.58226 34.928 4.24357 35.0468 3.85439C35.1654 3.46214 35.1506 3.03043 35.0056 2.65091C34.7072 1.84882 34.0473 1.34223 33.4542 0.878114L33.4463 0.892525L33.4536 0.877381C33.413 0.847826 33.3724 0.818295 33.3323 0.78945C32.966 0.54443 32.5847 0.332694 32.1915 0.156033C32.1066 0.116404 32.0205 0.0774852 31.9338 0.0428862C31.8859 0.023428 31.7919 -0.0291888 31.7518 0.0212703C31.7118 0.0717069 31.7579 0.145937 31.7998 0.183408C31.9617 0.327536 32.1291 0.454378 32.2655 0.633823C32.402 0.813263 32.513 1.02371 32.5045 1.26942C32.4966 1.49929 32.3832 1.70684 32.2528 1.86828C31.9732 2.20915 31.616 2.44987 31.26 2.65089C31.0817 2.75323 30.9016 2.85123 30.7172 2.93914C30.6135 2.98742 30.5092 3.03427 30.4061 3.08327C30.3291 3.12147 30.1538 3.18776 30.1538 3.31461C30.1538 3.38669 30.2266 3.44217 30.2751 3.47244C30.4376 3.5798 30.6257 3.64036 30.7967 3.72826C30.9956 3.82987 31.1927 3.93292 31.3856 4.04967C31.7288 4.25793 32.1073 4.51016 32.3407 4.88562C32.462 5.07948 32.536 5.30577 32.4839 5.54717C32.4317 5.78859 32.2959 5.97163 32.1485 6.12947C32.0732 6.20521 31.9945 6.27593 31.9126 6.34131C31.8707 6.37734 31.8271 6.41339 31.7858 6.44941C31.7446 6.48544 31.6906 6.61589 31.7913 6.62959C31.8756 6.63461 31.992 6.55752 32.0672 6.52581Z" fill="#18181B"/>
<path d="M73.9555 6.52581C74.0659 6.47608 74.1757 6.42347 74.2854 6.37158C74.6512 6.19786 75.0045 5.98914 75.3419 5.74753V5.74177L75.3449 5.74753C75.6988 5.48968 76.032 5.19367 76.3402 4.86331C76.5907 4.58226 76.8163 4.24357 76.9351 3.85439C77.0537 3.46214 77.0389 3.03043 76.8939 2.65091C76.5955 1.84882 75.9357 1.34223 75.3425 0.878114L75.3346 0.892525L75.3419 0.877381C75.3013 0.847826 75.2607 0.818295 75.2206 0.78945C74.8544 0.54443 74.473 0.332694 74.0799 0.156033C73.995 0.116404 73.9088 0.0774852 73.8221 0.0428862C73.7742 0.023428 73.6802 -0.0291888 73.6402 0.0212703C73.6001 0.0717069 73.6462 0.145937 73.6881 0.183408C73.85 0.327536 74.0174 0.454378 74.1539 0.633823C74.2903 0.813263 74.4013 1.02371 74.3928 1.26942C74.3849 1.49929 74.2715 1.70684 74.1411 1.86828C73.8615 2.20915 73.5043 2.44987 73.1483 2.65089C72.9701 2.75323 72.7899 2.85123 72.6056 2.93914C72.5019 2.98742 72.3975 3.03427 72.2944 3.08327C72.2174 3.12147 72.0421 3.18776 72.0421 3.31461C72.0421 3.38669 72.1149 3.44217 72.1634 3.47244C72.326 3.5798 72.514 3.64036 72.685 3.72826C72.8839 3.82987 73.081 3.93292 73.2739 4.04967C73.6171 4.25793 73.9956 4.51016 74.2291 4.88562C74.3503 5.07948 74.4243 5.30577 74.3722 5.54717C74.32 5.78859 74.1842 5.97163 74.0368 6.12947C73.9615 6.20521 73.8828 6.27593 73.8009 6.34131C73.759 6.37734 73.7154 6.41339 73.6741 6.44941C73.6329 6.48544 73.5789 6.61589 73.6796 6.62959C73.7639 6.63461 73.8803 6.55752 73.9555 6.52581Z" fill="#EE063E"/>
</svg>
