<svg xmlns="http://www.w3.org/2000/svg" xmlns:xlink="http://www.w3.org/1999/xlink" width="988" zoomAndPan="magnify" viewBox="273 276 988 310" height="310" preserveAspectRatio="xMidYMid meet" version="1.2"><defs><clipPath id="a92d375adf"><path d="M 800 309 L 828 309 L 828 336 L 800 336 Z M 800 309 "/></clipPath><clipPath id="fd025f9f33"><path d="M 814.515625 295.601562 L 841.40625 322.492188 L 827.855469 336.042969 L 800.964844 309.152344 Z M 814.515625 295.601562 "/></clipPath><clipPath id="3017c4eb90"><path d="M 827.9375 309.023438 L 827.808594 335.996094 L 800.964844 309.152344 Z M 827.9375 309.023438 "/></clipPath><clipPath id="c36bb0fa9b"><path d="M 707 309 L 854 309 L 854 488 L 707 488 Z M 707 309 "/></clipPath><clipPath id="536be72fe4"><path d="M 688.382812 225.421875 L 853.316406 390.351562 L 680.425781 563.242188 L 515.496094 398.308594 Z M 688.382812 225.421875 "/></clipPath><clipPath id="59eda40fad"><path d="M 763.953125 149.847656 L 1012.679688 398.574219 L 763.953125 647.296875 L 515.230469 398.574219 Z M 763.953125 149.847656 "/></clipPath><clipPath id="630eb72d43"><path d="M 763.953125 149.847656 L 1012.679688 398.574219 L 763.953125 647.296875 L 515.230469 398.574219 Z M 763.953125 149.847656 "/></clipPath><clipPath id="76602ad3bd"><path d="M 564 309 L 821 309 L 821 488 L 564 488 Z M 564 309 "/></clipPath><clipPath id="e08338eff2"><path d="M 688.382812 225.421875 L 853.316406 390.351562 L 680.425781 563.242188 L 515.496094 398.308594 Z M 688.382812 225.421875 "/></clipPath><clipPath id="2833f30030"><path d="M 763.953125 149.847656 L 1012.679688 398.574219 L 763.953125 647.296875 L 515.230469 398.574219 Z M 763.953125 149.847656 "/></clipPath><clipPath id="844429fe99"><path d="M 763.953125 149.847656 L 1012.679688 398.574219 L 763.953125 647.296875 L 515.230469 398.574219 Z M 763.953125 149.847656 "/></clipPath><clipPath id="f5122b3d43"><path d="M 794.109375 449.5 L 827.8125 449.5 L 827.8125 487.53125 L 794.109375 487.53125 Z M 794.109375 449.5 "/></clipPath><clipPath id="8dd4e9d2f2"><path d="M 776 447 L 812 447 L 812 459 L 776 459 Z M 776 447 "/></clipPath><clipPath id="41f81359ae"><path d="M 777.59375 447.949219 L 811.136719 451.238281 L 810.421875 458.546875 L 776.875 455.253906 Z M 777.59375 447.949219 "/></clipPath><clipPath id="c71c3cf28f"><path d="M 1074.460938 308.539062 L 1111.996094 308.539062 L 1111.996094 345.695312 L 1074.460938 345.695312 Z M 1074.460938 308.539062 "/></clipPath></defs><g id="cd1311ab9f"><g clip-rule="nonzero" clip-path="url(#a92d375adf)"><g clip-rule="nonzero" clip-path="url(#fd025f9f33)"><g clip-rule="nonzero" clip-path="url(#3017c4eb90)"><path style=" stroke:none;fill-rule:nonzero;fill:#000000;fill-opacity:1;" d="M 814.515625 295.601562 L 841.355469 322.4375 L 827.800781 335.992188 L 800.964844 309.152344 Z M 814.515625 295.601562 "/></g></g></g><g clip-rule="nonzero" clip-path="url(#c36bb0fa9b)"><g clip-rule="nonzero" clip-path="url(#536be72fe4)"><g clip-rule="nonzero" clip-path="url(#59eda40fad)"><g clip-rule="nonzero" clip-path="url(#630eb72d43)"><path style=" stroke:none;fill-rule:nonzero;fill:#000000;fill-opacity:1;" d="M 963.339844 398.453125 C 963.363281 349.238281 923.492188 309.367188 874.285156 309.398438 L 803.980469 309.429688 C 807.066406 311.910156 810.003906 314.589844 812.832031 317.414062 C 821.722656 326.308594 828.953125 336.367188 834.414062 347.28125 L 874.253906 347.261719 C 887.945312 347.246094 900.808594 352.574219 910.476562 362.246094 C 920.148438 371.917969 925.476562 384.777344 925.460938 398.46875 C 925.460938 412.148438 920.128906 425 910.433594 434.699219 C 900.75 444.382812 887.882812 449.726562 874.203125 449.726562 L 796.242188 449.777344 C 782.546875 449.796875 769.6875 444.464844 760.015625 434.796875 C 750.332031 425.109375 745.019531 412.265625 745.027344 398.566406 C 745.015625 391.914062 746.289062 385.453125 748.71875 379.453125 C 744.03125 375.257812 738.035156 372.957031 731.691406 372.960938 L 710.910156 372.988281 C 708.480469 381.09375 707.164062 389.703125 707.144531 398.601562 C 707.109375 447.808594 746.988281 487.6875 796.203125 487.664062 L 874.1875 487.605469 C 923.382812 487.566406 963.300781 447.652344 963.339844 398.453125 Z M 963.339844 398.453125 "/></g></g></g></g><g clip-rule="nonzero" clip-path="url(#76602ad3bd)"><g clip-rule="nonzero" clip-path="url(#e08338eff2)"><g clip-rule="nonzero" clip-path="url(#2833f30030)"><g clip-rule="nonzero" clip-path="url(#844429fe99)"><path style=" stroke:none;fill-rule:nonzero;fill:#000000;fill-opacity:1;" d="M 715.511719 480.136719 C 706.605469 471.230469 699.3125 461.054688 693.785156 449.835938 L 653.660156 449.863281 C 639.976562 449.886719 627.117188 444.558594 617.445312 434.886719 C 607.773438 425.21875 602.460938 412.371094 602.46875 398.671875 C 602.464844 384.984375 607.808594 372.117188 617.492188 362.433594 C 627.175781 352.75 640.042969 347.40625 653.742188 347.398438 L 731.703125 347.347656 C 745.390625 347.355469 758.234375 352.667969 767.90625 362.339844 C 777.589844 372.023438 782.90625 384.871094 782.902344 398.550781 C 782.898438 405.210938 781.632812 411.679688 779.214844 417.6875 C 783.898438 421.910156 789.917969 424.207031 796.261719 424.203125 L 817.015625 424.175781 C 819.457031 416.054688 820.769531 407.4375 820.78125 398.53125 C 820.8125 349.324219 780.933594 309.449219 731.730469 309.480469 L 653.75 309.542969 C 604.53125 309.5625 564.617188 349.476562 564.585938 398.710938 C 564.550781 447.917969 604.417969 487.78125 653.625 487.75 L 723.828125 487.703125 C 720.964844 485.332031 718.191406 482.820312 715.523438 480.152344 Z M 715.511719 480.136719 "/></g></g></g></g><path style="fill:none;stroke-width:50;stroke-linecap:butt;stroke-linejoin:miter;stroke:#000000;stroke-opacity:1;stroke-miterlimit:4;" d="M 16.542219 18.745062 C 64.768554 61.301607 112.99446 61.30068 161.222995 18.746495 " transform="matrix(0.607079,0.440403,-0.440403,0.607079,724.244202,386.135801)"/><g clip-rule="nonzero" clip-path="url(#f5122b3d43)"><path style=" stroke:none;fill-rule:nonzero;fill:#000000;fill-opacity:1;" d="M 794.109375 449.5 L 827.8125 449.5 L 827.8125 487.550781 L 794.109375 487.550781 Z M 794.109375 449.5 "/></g><g clip-rule="nonzero" clip-path="url(#8dd4e9d2f2)"><g clip-rule="nonzero" clip-path="url(#41f81359ae)"><path style=" stroke:none;fill-rule:nonzero;fill:#000000;fill-opacity:1;" d="M 777.59375 447.949219 L 811.136719 451.238281 L 810.421875 458.546875 L 776.875 455.253906 Z M 777.59375 447.949219 "/></g></g><g style="fill:#000000;fill-opacity:1;"><g transform="translate(282.187434, 484.730475)"><path style="stroke:none" d="M 64.234375 2.640625 C 45.023438 2.640625 31.3125 -2.304688 23.09375 -12.203125 C 14.882812 -22.109375 10.78125 -36.738281 10.78125 -56.09375 L 10.78125 -122.3125 C 10.78125 -141.664062 14.882812 -156.21875 23.09375 -165.96875 C 31.3125 -175.726562 45.023438 -180.609375 64.234375 -180.609375 C 83.585938 -180.609375 97.40625 -175.691406 105.6875 -165.859375 C 113.976562 -156.035156 118.125 -141.519531 118.125 -122.3125 L 118.125 -56.09375 C 118.125 -36.738281 113.976562 -22.109375 105.6875 -12.203125 C 97.40625 -2.304688 83.585938 2.640625 64.234375 2.640625 Z M 64.234375 -25.296875 C 69.804688 -25.296875 73.472656 -27.164062 75.234375 -30.90625 C 76.992188 -34.644531 77.875 -39.742188 77.875 -46.203125 L 77.875 -131.984375 C 77.875 -138.585938 76.992188 -143.722656 75.234375 -147.390625 C 73.472656 -151.054688 69.804688 -152.890625 64.234375 -152.890625 C 58.953125 -152.890625 55.429688 -151.019531 53.671875 -147.28125 C 51.910156 -143.539062 51.03125 -138.441406 51.03125 -131.984375 L 51.03125 -46.203125 C 51.03125 -39.742188 51.835938 -34.644531 53.453125 -30.90625 C 55.066406 -27.164062 58.660156 -25.296875 64.234375 -25.296875 Z M 64.234375 -25.296875 "/></g></g><g style="fill:#000000;fill-opacity:1;"><g transform="translate(411.101357, 484.730475)"><path style="stroke:none" d="M 15.84375 -102.953125 L 3.734375 -102.953125 L 3.734375 -127.15625 L 15.84375 -127.15625 L 15.84375 -136.609375 C 15.84375 -145.117188 16.644531 -151.972656 18.25 -157.171875 C 19.863281 -162.378906 23.203125 -166.445312 28.265625 -169.375 C 33.328125 -172.3125 40.769531 -173.78125 50.59375 -173.78125 C 56.75 -173.78125 62.46875 -173.414062 67.75 -172.6875 L 67.75 -146.0625 C 64.53125 -146.800781 61.96875 -147.171875 60.0625 -147.171875 C 54.488281 -147.171875 51.703125 -143.867188 51.703125 -137.265625 L 51.703125 -127.15625 L 67.75 -127.15625 L 67.75 -102.953125 L 51.703125 -102.953125 L 51.703125 0 L 15.84375 0 Z M 15.84375 -102.953125 "/></g></g><g style="fill:#000000;fill-opacity:1;"><g transform="translate(474.678331, 484.730475)"><path style="stroke:none" d="M 15.84375 -102.953125 L 3.734375 -102.953125 L 3.734375 -127.15625 L 15.84375 -127.15625 L 15.84375 -136.609375 C 15.84375 -145.117188 16.644531 -151.972656 18.25 -157.171875 C 19.863281 -162.378906 23.203125 -166.445312 28.265625 -169.375 C 33.328125 -172.3125 40.769531 -173.78125 50.59375 -173.78125 C 56.75 -173.78125 62.46875 -173.414062 67.75 -172.6875 L 67.75 -146.0625 C 64.53125 -146.800781 61.96875 -147.171875 60.0625 -147.171875 C 54.488281 -147.171875 51.703125 -143.867188 51.703125 -137.265625 L 51.703125 -127.15625 L 67.75 -127.15625 L 67.75 -102.953125 L 51.703125 -102.953125 L 51.703125 0 L 15.84375 0 Z M 15.84375 -102.953125 "/></g></g><g clip-rule="nonzero" clip-path="url(#c71c3cf28f)"><path style=" stroke:none;fill-rule:nonzero;fill:#000000;fill-opacity:1;" d="M 1074.460938 308.539062 L 1112.054688 308.539062 L 1112.054688 345.695312 L 1074.460938 345.695312 Z M 1074.460938 308.539062 "/></g><path style="fill:none;stroke-width:50;stroke-linecap:butt;stroke-linejoin:miter;stroke:#000000;stroke-opacity:1;stroke-miterlimit:4;" d="M -0.00214504 24.998187 L 173.622864 24.998187 " transform="matrix(0,-0.75,0.75,0,1074.681048,487.533547)"/><g style="fill:#000000;fill-opacity:1;"><g transform="translate(841.175885, 486.69234)"><path style="stroke:none" d="M 11.4375 -178.1875 L 47.078125 -178.1875 L 47.078125 -115.9375 C 56.023438 -124.875 66.4375 -129.34375 78.3125 -129.34375 C 85.644531 -129.34375 91.363281 -126.59375 95.46875 -121.09375 C 99.570312 -115.601562 101.625 -108.457031 101.625 -99.65625 L 101.625 0 L 66 0 L 66 -94.59375 C 66 -97.820312 65.445312 -100.203125 64.34375 -101.734375 C 63.25 -103.273438 61.378906 -104.046875 58.734375 -104.046875 C 55.648438 -104.046875 51.765625 -102.507812 47.078125 -99.4375 L 47.078125 0 L 11.4375 0 Z M 11.4375 -178.1875 "/></g></g><g style="fill:#000000;fill-opacity:1;"><g transform="translate(951.490684, 486.69234)"><path style="stroke:none" d="M 37.390625 2.203125 C 31.234375 2.203125 25.914062 0.703125 21.4375 -2.296875 C 16.96875 -5.304688 13.597656 -9.195312 11.328125 -13.96875 C 9.054688 -18.738281 7.921875 -23.6875 7.921875 -28.8125 C 7.921875 -38.644531 10.410156 -46.710938 15.390625 -53.015625 C 20.378906 -59.316406 26.359375 -64.226562 33.328125 -67.75 C 40.296875 -71.269531 49.28125 -74.9375 60.28125 -78.75 L 60.28125 -91.515625 C 60.28125 -95.179688 59.726562 -97.96875 58.625 -99.875 C 57.519531 -101.78125 55.578125 -102.734375 52.796875 -102.734375 C 50.003906 -102.734375 48.019531 -101.851562 46.84375 -100.09375 C 45.675781 -98.332031 45.019531 -95.835938 44.875 -92.609375 L 44 -83.375 L 10.5625 -84.6875 C 11.144531 -99.945312 15.175781 -111.203125 22.65625 -118.453125 C 30.132812 -125.710938 41.28125 -129.34375 56.09375 -129.34375 C 68.5625 -129.34375 78.09375 -125.859375 84.6875 -118.890625 C 91.289062 -111.929688 94.59375 -102.660156 94.59375 -91.078125 L 94.59375 -31.671875 C 94.59375 -18.765625 95.328125 -8.207031 96.796875 0 L 64.671875 0 C 63.359375 -9.820312 62.40625 -15.832031 61.8125 -18.03125 C 60.050781 -12.164062 57.117188 -7.328125 53.015625 -3.515625 C 48.910156 0.296875 43.703125 2.203125 37.390625 2.203125 Z M 50.15625 -22 C 53.820312 -22 57.195312 -24.125 60.28125 -28.375 L 60.28125 -63.140625 C 53.675781 -59.328125 48.6875 -55.328125 45.3125 -51.140625 C 41.9375 -46.960938 40.25 -41.867188 40.25 -35.859375 C 40.25 -31.609375 41.128906 -28.234375 42.890625 -25.734375 C 44.648438 -23.242188 47.070312 -22 50.15625 -22 Z M 50.15625 -22 "/></g></g><g style="fill:#000000;fill-opacity:1;"><g transform="translate(1126.831007, 486.69234)"><path style="stroke:none" d="M 11.21875 -127.15625 L 47.078125 -127.15625 L 47.078125 -114.390625 C 57.046875 -124.359375 67.238281 -129.34375 77.65625 -129.34375 C 85.28125 -129.34375 91.109375 -126.59375 95.140625 -121.09375 C 99.171875 -115.601562 101.1875 -108.457031 101.1875 -99.65625 L 101.1875 0 L 65.5625 0 L 65.5625 -94.59375 C 65.5625 -97.820312 65.007812 -100.203125 63.90625 -101.734375 C 62.800781 -103.273438 60.929688 -104.046875 58.296875 -104.046875 C 55.359375 -104.046875 51.617188 -102.507812 47.078125 -99.4375 L 47.078125 0 L 11.21875 0 Z M 11.21875 -127.15625 "/></g></g><g style="fill:#000000;fill-opacity:1;"><g transform="translate(921.952941, 565.667729)"><path style="stroke:none" d="M 10.953125 0 L 4.3125 0 L 4.3125 -36.25 L 10.109375 -36.25 L 22.609375 -19.359375 L 35.1875 -36.25 L 40.96875 -36.25 L 40.96875 0 L 34.328125 0 L 34.328125 -25.625 L 23.484375 -10.796875 L 21.703125 -10.796875 L 10.953125 -25.671875 Z M 10.953125 0 "/></g></g><g style="fill:#000000;fill-opacity:1;"><g transform="translate(1005.095581, 565.667729)"><path style="stroke:none" d="M 29.40625 0 L 4.3125 0 L 4.3125 -36.25 L 29.15625 -36.25 L 29.15625 -30.3125 L 10.953125 -30.3125 L 10.953125 -21.21875 L 26.6875 -21.21875 L 26.6875 -15.625 L 10.953125 -15.625 L 10.953125 -5.9375 L 29.40625 -5.9375 Z M 29.40625 0 "/></g></g><g style="fill:#000000;fill-opacity:1;"><g transform="translate(1074.111949, 565.667729)"><path style="stroke:none" d="M 18.359375 0 L 4.3125 0 L 4.3125 -36.25 L 18.28125 -36.25 C 21.175781 -36.25 23.804688 -35.816406 26.171875 -34.953125 C 28.535156 -34.097656 30.566406 -32.867188 32.265625 -31.265625 C 33.960938 -29.671875 35.269531 -27.765625 36.1875 -25.546875 C 37.101562 -23.335938 37.5625 -20.875 37.5625 -18.15625 C 37.5625 -15.4375 37.101562 -12.960938 36.1875 -10.734375 C 35.269531 -8.503906 33.96875 -6.585938 32.28125 -4.984375 C 30.59375 -3.378906 28.570312 -2.144531 26.21875 -1.28125 C 23.863281 -0.425781 21.242188 0 18.359375 0 Z M 10.84375 -30.359375 L 10.84375 -5.921875 L 18.15625 -5.921875 C 20.800781 -5.921875 23.070312 -6.410156 24.96875 -7.390625 C 26.875 -8.378906 28.332031 -9.78125 29.34375 -11.59375 C 30.363281 -13.40625 30.875 -15.554688 30.875 -18.046875 C 30.875 -20.515625 30.375 -22.671875 29.375 -24.515625 C 28.382812 -26.367188 26.9375 -27.804688 25.03125 -28.828125 C 23.125 -29.847656 20.8125 -30.359375 18.09375 -30.359375 Z M 10.84375 -30.359375 "/></g></g><g style="fill:#000000;fill-opacity:1;"><g transform="translate(1151.337552, 565.667729)"><path style="stroke:none" d="M 10.953125 0 L 4.3125 0 L 4.3125 -36.25 L 10.953125 -36.25 Z M 10.953125 0 "/></g></g><g style="fill:#000000;fill-opacity:1;"><g transform="translate(1204.468534, 565.667729)"><path style="stroke:none" d="M 36.703125 0 L 29.703125 0 L 26.8125 -7.015625 L 10.125 -7.015625 L 7.25 0 L 0.234375 0 L 15.328125 -36.28125 L 21.625 -36.28125 Z M 18.234375 -26.84375 L 12.390625 -12.5625 L 24.546875 -12.5625 L 18.6875 -26.84375 L 18.53125 -27.71875 L 18.453125 -27.71875 Z M 18.234375 -26.84375 "/></g></g></g></svg>